<svg height="512pt" viewBox="-64 0 512 512" width="512pt" xmlns="http://www.w3.org/2000/svg"><path d="m298.667969 437.332031v-10.664062h-21.335938v10.664062c0 17.644531-14.355469 32-32 32-17.640625 0-32-14.355469-32-32v-10.664062h-68.4375v-280.898438l153.773438 21.335938h21.332031v-92.4375c0-51.585938-58.921875-74.667969-117.332031-74.667969h-85.335938c-58.410156 0-117.332031 23.082031-117.332031 74.667969v373.332031c0 64 88.320312 64 117.332031 64h85.335938c25.941406 0 99.070312-.148438 114.34375-45.84375-10.8125-5.144531-18.34375-16.085938-18.34375-28.824219zm0 0" fill="#cfd8dc"/><path d="m213.332031 373.332031c0 13.890625 8.941407 25.621094 21.335938 30.039063v33.960937c0 5.890625 4.777343 10.667969 10.664062 10.667969 5.890625 0 10.667969-4.777344 10.667969-10.667969v-32h64v32c0 5.890625 4.777344 10.667969 10.667969 10.667969 5.886719 0 10.664062-4.777344 10.664062-10.667969v-33.960937c12.394531-4.417969 21.335938-16.148438 21.335938-30.039063v-96h-149.335938zm0 0" fill="#8bc34a"/><path d="m344.449219 195.113281-11.96875 11.96875c-12.820313-9.621093-28.183594-15.082031-44.480469-15.082031-16.746094 0-32 5.78125-44.414062 15.167969l-12.054688-12.054688c-4.160156-4.160156-10.921875-4.160156-15.082031 0-4.160157 4.160157-4.160157 10.925781 0 15.085938l12.050781 12.050781c-7.210938 9.75-12.285156 21.183594-14.101562 33.730469h147.222656c-1.769532-12.332031-6.507813-23.9375-13.929688-33.941407l11.859375-11.863281c4.160157-4.160156 4.160157-10.921875 0-15.082031-4.160156-4.160156-10.921875-4.140625-15.101562.019531zm0 0" fill="#8bc34a"/><path d="m213.332031 415.722656c-4.5-3.414062-8.511719-7.402344-11.730469-12.03125-3.050781.980469-6.230468 1.640625-9.601562 1.640625-17.644531 0-32-14.355469-32-32v-85.332031c0-17.644531 14.355469-32 32-32h.875l.449219-3.070312c1.40625-9.664063 4.542969-18.667969 8.574219-27.136719l-.511719-.511719c-12.480469-12.480469-12.480469-32.769531 0-45.25 12.457031-12.480469 32.789062-12.480469 45.246093 0l.40625.40625c12.546876-6.058594 26.347657-9.769531 40.960938-9.769531 3.605469 0 12.480469.210937 16 .640625l-5.332031-64.640625h-277.335938v320h192zm0 0" fill="#00bcd4"/><path d="m202.667969 512h-85.335938c-29.011719 0-117.332031 0-117.332031-64v-373.332031c0-51.585938 58.945312-74.667969 117.332031-74.667969h85.335938c58.386719 0 117.332031 23.082031 117.332031 74.667969v92.992187c0 5.886719-4.777344 10.664063-10.667969 10.664063-5.886719 0-10.664062-4.777344-10.664062-10.664063v-92.992187c0-42.113281-60.351563-53.335938-96-53.335938h-85.335938c-35.648437 0-96 11.222657-96 53.335938v373.332031c0 29.097656 30.507813 42.667969 96 42.667969h85.335938c17.195312 0 80.148437-5.335938 99.09375-26.648438 3.964843-4.414062 10.664062-4.839843 15.058593-.894531 4.417969 3.925781 4.824219 10.667969.898438 15.0625-22.722656 25.535156-81.109375 33.8125-115.050781 33.8125zm0 0"/><path d="m309.332031 106.667969h-298.664062c-5.890625 0-10.667969-4.78125-10.667969-10.667969s4.777344-10.667969 10.667969-10.667969h298.664062c5.890625 0 10.667969 4.78125 10.667969 10.667969s-4.777344 10.667969-10.667969 10.667969zm0 0"/><path d="m208 448h-197.332031c-5.890625 0-10.667969-4.777344-10.667969-10.667969 0-5.886719 4.777344-10.664062 10.667969-10.664062h197.332031c5.886719 0 10.667969 4.777343 10.667969 10.664062 0 5.890625-4.78125 10.667969-10.667969 10.667969zm0 0"/><path d="m330.667969 405.332031h-85.335938c-17.640625 0-32-14.355469-32-32 0-5.886719 4.78125-10.664062 10.667969-10.664062s10.667969 4.777343 10.667969 10.664062c0 5.890625 4.796875 10.667969 10.664062 10.667969h85.335938c5.867187 0 10.664062-4.777344 10.664062-10.667969 0-5.886719 4.78125-10.664062 10.667969-10.664062s10.667969 4.777343 10.667969 10.664062c0 17.644531-14.359375 32-32 32zm0 0"/><path d="m352 384c-5.886719 0-10.667969-4.777344-10.667969-10.667969v-106.664062c0-5.890625 4.78125-10.667969 10.667969-10.667969s10.667969 4.777344 10.667969 10.667969v106.664062c0 5.890625-4.78125 10.667969-10.667969 10.667969zm0 0"/><path d="m352 277.332031c-5.886719 0-10.667969-4.777343-10.667969-10.664062 0-29.398438-23.914062-53.335938-53.332031-53.335938s-53.332031 23.9375-53.332031 53.335938c0 5.886719-4.78125 10.664062-10.667969 10.664062s-10.667969-4.777343-10.667969-10.664062c0-41.175781 33.496094-74.667969 74.667969-74.667969s74.667969 33.492188 74.667969 74.667969c0 5.886719-4.78125 10.664062-10.667969 10.664062zm0 0"/><path d="m224 384c-5.886719 0-10.667969-4.777344-10.667969-10.667969v-106.664062c0-5.890625 4.78125-10.667969 10.667969-10.667969s10.667969 4.777344 10.667969 10.667969v106.664062c0 5.890625-4.78125 10.667969-10.667969 10.667969zm0 0"/><path d="m352 277.332031h-128c-5.886719 0-10.667969-4.777343-10.667969-10.664062 0-5.890625 4.78125-10.667969 10.667969-10.667969h128c5.886719 0 10.667969 4.777344 10.667969 10.667969 0 5.886719-4.78125 10.664062-10.667969 10.664062zm0 0"/><path d="m245.332031 448c-5.886719 0-10.664062-4.777344-10.664062-10.667969v-42.664062c0-5.890625 4.777343-10.667969 10.664062-10.667969 5.890625 0 10.667969 4.777344 10.667969 10.667969v42.664062c0 5.890625-4.777344 10.667969-10.667969 10.667969zm0 0"/><path d="m330.667969 448c-5.890625 0-10.667969-4.777344-10.667969-10.667969v-42.664062c0-5.890625 4.777344-10.667969 10.667969-10.667969 5.886719 0 10.664062 4.777344 10.664062 10.667969v42.664062c0 5.890625-4.777343 10.667969-10.664062 10.667969zm0 0"/><path d="m240 229.332031c-2.730469 0-5.460938-1.042969-7.550781-3.113281l-16-16c-4.160157-4.160156-4.160157-10.921875 0-15.082031 4.160156-4.160157 10.921875-4.160157 15.082031 0l16 16c4.160156 4.160156 4.160156 10.921875 0 15.082031-2.070312 2.070312-4.800781 3.113281-7.53125 3.113281zm0 0"/><path d="m336 229.332031c-2.730469 0-5.460938-1.042969-7.550781-3.113281-4.160157-4.160156-4.160157-10.921875 0-15.082031l16-16c4.160156-4.160157 10.921875-4.160157 15.082031 0 4.160156 4.160156 4.160156 10.921875 0 15.082031l-16 16c-2.070312 2.070312-4.800781 3.113281-7.53125 3.113281zm0 0"/><path d="m202.667969 384c-5.890625 0-10.667969-4.777344-10.667969-10.667969v-85.332031c0-5.886719 4.777344-10.667969 10.667969-10.667969 5.886719 0 10.664062 4.78125 10.664062 10.667969v85.332031c0 5.890625-4.777343 10.667969-10.664062 10.667969zm0 0"/><path d="m373.332031 384c-5.886719 0-10.664062-4.777344-10.664062-10.667969v-85.332031c0-5.886719 4.777343-10.667969 10.664062-10.667969 5.890625 0 10.667969 4.78125 10.667969 10.667969v85.332031c0 5.890625-4.777344 10.667969-10.667969 10.667969zm0 0"/><path d="m181.332031 64h-42.664062c-5.890625 0-10.667969-4.777344-10.667969-10.667969 0-5.886719 4.777344-10.664062 10.667969-10.664062h42.664062c5.890625 0 10.667969 4.777343 10.667969 10.664062 0 5.890625-4.777344 10.667969-10.667969 10.667969zm0 0"/></svg>